HIERARCHY
ROOT root
{
	OFFSET	0	260	24
	CHANNELS 6  Xposition Yposition Zposition Xrotation Yrotation Zrotation
	JOINT spine_3
	{
		OFFSET	0	81.6	10.2
		CHANNELS 3  Xrotation Yrotation Zrotation
		JOINT spine_4
		{
			OFFSET	0	110.4	14.6
			CHANNELS 3  Xrotation Yrotation Zrotation
			JOINT neck_1
			{
				OFFSET	0	71.8	-50.3
				CHANNELS 3  Xrotation Yrotation Zrotation
				JOINT neck_2
				{
					OFFSET	0	86.2	-25.8
					CHANNELS 3  Xrotation Yrotation Zrotation
					JOINT head_ee
					{
						OFFSET	0	179.8	-8.7
						CHANNELS 3  Xrotation Yrotation Zrotation
						End Site
						{
							OFFSET	1	0	0
						}
					}
				}
			}
			JOINT left_clavicle
			{
				OFFSET	-43.2	22.4	-70.8
				CHANNELS 3  Xrotation Yrotation Zrotation
				JOINT left_shoulder
				{
					OFFSET	-93.9	-5.79999	48.7
					CHANNELS 3  Xrotation Yrotation Zrotation
					JOINT left_elbow
					{
						OFFSET	-291.4	-30.8	15.2
						CHANNELS 3  Xrotation Yrotation Zrotation
						JOINT left_lowarm_twist
						{
							OFFSET	-110.7	-3.89999	13.6
							CHANNELS 3  Xrotation Yrotation Zrotation
							JOINT left_hand
							{
								OFFSET	-110.7	-3.89999	13.6
								CHANNELS 3  Xrotation Yrotation Zrotation
								JOINT left_ee
								{
									OFFSET	-80.8	-5.10001	12.1
									CHANNELS 3  Xrotation Yrotation Zrotation
									End Site
									{
										OFFSET	1	0	0
									}
								}
							}
						}
					}
				}
			}
			JOINT right_clavicle
			{
				OFFSET	43.2	22.4	-70.8
				CHANNELS 3  Xrotation Yrotation Zrotation
				JOINT right_shoulder
				{
					OFFSET	93.9	-5.79999	48.7
					CHANNELS 3  Xrotation Yrotation Zrotation
					JOINT right_elbow
					{
						OFFSET	291.4	-30.8	15.2
						CHANNELS 3  Xrotation Yrotation Zrotation
						JOINT right_lowarm_twist
						{
							OFFSET	110.7	-3.89999	13.6
							CHANNELS 3  Xrotation Yrotation Zrotation
							JOINT right_hand
							{
								OFFSET	110.7	-3.89999	13.6
								CHANNELS 3  Xrotation Yrotation Zrotation
								JOINT right_ee
								{
									OFFSET	80.8	-5.10001	12.1
									CHANNELS 3  Xrotation Yrotation Zrotation
									End Site
									{
										OFFSET	1	0	0
									}
								}
							}
						}
					}
				}
			}
		}
	}
	JOINT spine_2
	{
		OFFSET	0	-124.9	-9.1
		CHANNELS 3  Xrotation Yrotation Zrotation
		JOINT spine_1
		{
			OFFSET	0	-112	10
			CHANNELS 3  Xrotation Yrotation Zrotation
			JOINT left_hip
			{
				OFFSET	-82.8	-137.5	0.300001
				CHANNELS 3  Xrotation Yrotation Zrotation
				JOINT left_knee
				{
					OFFSET	-28.2	-396.7	2.2
					CHANNELS 3  Xrotation Yrotation Zrotation
					JOINT left_ankle
					{
						OFFSET	-11.7	-411.3	35.4
						CHANNELS 3  Xrotation Yrotation Zrotation
						JOINT left_toes
						{
							OFFSET	0	-60	-88.6
							CHANNELS 3  Xrotation Yrotation Zrotation
							JOINT left_foot_ee
							{
								OFFSET	-22.5	-16.5	-42.2
								CHANNELS 3  Xrotation Yrotation Zrotation
								End Site
								{
									OFFSET	1	0	0
								}
							}
						}
					}
				}
			}
			JOINT right_hip
			{
				OFFSET	82.8	-137.5	0.300001
				CHANNELS 3  Xrotation Yrotation Zrotation
				JOINT right_knee
				{
					OFFSET	28.2	-396.7	2.2
					CHANNELS 3  Xrotation Yrotation Zrotation
					JOINT right_ankle
					{
						OFFSET	11.7	-411.3	35.4
						CHANNELS 3  Xrotation Yrotation Zrotation
						JOINT right_toes
						{
							OFFSET	0	-60	-88.6
							CHANNELS 3  Xrotation Yrotation Zrotation
							JOINT right_foot_ee
							{
								OFFSET	22.5	-16.5	-42.2
								CHANNELS 3  Xrotation Yrotation Zrotation
								End Site
								{
									OFFSET	1	0	0
								}
							}
						}
					}
				}
			}
		}
	}
}
MOTION
Frames: 8
Frame Time: 0.02
1041.4 574.639 -1682.42 -1.39004505776 33.8817527694 7.0963116049 4.241 0.180816 -1.8865 4.23605 -0.119336 -1.89139 -10.3128 11.378 4.47871 -10.3845 18.4675 7.26233 -0.0 0.0 -0.0 -1.40947 23.5098 0.793432 -23.2489 -23.1535 67.796 0.557252 -15.4321 0.0755032 -5.02963 -0.204135 0.609456 2.65846 9.78457 21.6762 -0.0 0.0 -0.0 9.75265 -10.1089 -18.3852 -11.8335 33.5963 -51.9825 1.70141 40.1217 -0.621349 -63.1797 5.68064 -5.18912 -7.67901 -23.6867 37.7997 0.0 0.0 0.0 -4.23996 -0.0602509 1.89419 -4.24195 0.0603812 1.89418 31.3796 -28.615 -18.9378 1.5451 -0.0667029 -0.227708 -21.028 29.0296 3.37243 -2.17175 0.0 0.0 -0.0 0.0 -0.0 8.6121 26.2453 -17.6959 -19.3961 -0.302335 -2.94694 41.5587 -18.2857 5.13095 -10.8588 0.0 0.0 0.0 0.0 0.0 
1025.9987932 573.241 -1695.49736323 -2.9002553297 34.9360237639 8.01076497574 4.40884 0.151628 -2.11627 4.40264 -0.184424 -2.11367 -7.5649 12.6627 5.14525 -7.53132 19.9575 7.78726 -0.0 0.0 -0.0 -1.26022 22.0907 0.789634 -21.0516 -22.9353 68.5523 0.59015 -16.296 0.0844961 -4.89655 -0.198047 0.593567 2.84689 9.21032 22.8026 -0.0 0.0 -0.0 9.61597 -9.93077 -18.1494 -12.312 32.5827 -51.8322 1.66151 39.4534 -0.595817 -63.897 5.771 -5.20588 -7.68553 -22.9557 38.6491 0.0 0.0 0.0 -4.40752 -0.0288949 2.1215 -4.41002 0.106129 2.11904 31.7159 -28.6248 -19.2525 2.46787 -0.109465 -0.362831 -21.4364 26.9605 3.39511 -0.13987 0.0 0.0 -0.0 0.0 -0.0 9.75418 25.6915 -18.3801 -19.3218 -0.303092 -2.93557 42.0579 -18.6848 5.18345 -10.8498 0.0 0.0 0.0 0.0 0.0 
1025.82439286 573.241 -1695.28915158 -2.92800186863 35.7052470582 8.05875570408 4.40884 0.151628 -2.11627 4.40264 -0.184424 -2.11367 -7.5649 12.6627 5.14525 -7.53132 19.9575 7.78726 -0.0 0.0 -0.0 -1.26022 22.0907 0.789634 -21.0516 -22.9353 68.5523 0.59015 -16.296 0.0844961 -4.89655 -0.198047 0.593567 2.84689 9.21032 22.8026 -0.0 0.0 -0.0 9.61597 -9.93077 -18.1494 -12.312 32.5827 -51.8322 1.66151 39.4534 -0.595817 -63.897 5.771 -5.20588 -7.68553 -22.9557 38.6491 0.0 0.0 0.0 -4.40752 -0.0288949 2.1215 -4.41002 0.106129 2.11904 31.7159 -28.6248 -19.2525 2.46787 -0.109465 -0.362831 -21.4364 26.9605 3.39511 -0.13987 0.0 0.0 -0.0 0.0 -0.0 9.75418 25.6915 -18.3801 -19.3218 -0.303092 -2.93557 42.0579 -18.6848 5.18345 -10.8498 0.0 0.0 0.0 0.0 0.0 
1025.71327812 573.241 -1695.15347387 -2.9464855225 36.2019150216 8.09023679312 4.40884 0.151628 -2.11627 4.40264 -0.184424 -2.11367 -7.5649 12.6627 5.14525 -7.53132 19.9575 7.78726 -0.0 0.0 -0.0 -1.26022 22.0907 0.789634 -21.0516 -22.9353 68.5523 0.59015 -16.296 0.0844961 -4.89655 -0.198047 0.593567 2.84689 9.21032 22.8026 -0.0 0.0 -0.0 9.61597 -9.93077 -18.1494 -12.312 32.5827 -51.8322 1.66151 39.4534 -0.595817 -63.897 5.771 -5.20588 -7.68553 -22.9557 38.6491 0.0 0.0 0.0 -4.40752 -0.0288949 2.1215 -4.41002 0.106129 2.11904 31.7159 -28.6248 -19.2525 2.46787 -0.109465 -0.362831 -21.4364 26.9605 3.39511 -0.13987 0.0 0.0 -0.0 0.0 -0.0 9.75418 25.6915 -18.3801 -19.3218 -0.303092 -2.93557 42.0579 -18.6848 5.18345 -10.8498 0.0 0.0 0.0 0.0 0.0 
1025.55949929 573.241 -1694.96165608 -2.97317306937 36.8981738801 8.13504946711 4.40884 0.151628 -2.11627 4.40264 -0.184424 -2.11367 -7.5649 12.6627 5.14525 -7.53132 19.9575 7.78726 -0.0 0.0 -0.0 -1.26022 22.0907 0.789634 -21.0516 -22.9353 68.5523 0.59015 -16.296 0.0844961 -4.89655 -0.198047 0.593567 2.84689 9.21032 22.8026 -0.0 0.0 -0.0 9.61597 -9.93077 -18.1494 -12.312 32.5827 -51.8322 1.66151 39.4534 -0.595817 -63.897 5.771 -5.20588 -7.68553 -22.9557 38.6491 0.0 0.0 0.0 -4.40752 -0.0288949 2.1215 -4.41002 0.106129 2.11904 31.7159 -28.6248 -19.2525 2.46787 -0.109465 -0.362831 -21.4364 26.9605 3.39511 -0.13987 0.0 0.0 -0.0 0.0 -0.0 9.75418 25.6915 -18.3801 -19.3218 -0.303092 -2.93557 42.0579 -18.6848 5.18345 -10.8498 0.0 0.0 0.0 0.0 0.0 
1025.45988488 573.241 -1694.83480285 -2.99118731448 37.354947481 8.16489500801 4.40884 0.151628 -2.11627 4.40264 -0.184424 -2.11367 -7.5649 12.6627 5.14525 -7.53132 19.9575 7.78726 -0.0 0.0 -0.0 -1.26022 22.0907 0.789634 -21.0516 -22.9353 68.5523 0.59015 -16.296 0.0844961 -4.89655 -0.198047 0.593567 2.84689 9.21032 22.8026 -0.0 0.0 -0.0 9.61597 -9.93077 -18.1494 -12.312 32.5827 -51.8322 1.66151 39.4534 -0.595817 -63.897 5.771 -5.20588 -7.68553 -22.9557 38.6491 0.0 0.0 0.0 -4.40752 -0.0288949 2.1215 -4.41002 0.106129 2.11904 31.7159 -28.6248 -19.2525 2.46787 -0.109465 -0.362831 -21.4364 26.9605 3.39511 -0.13987 0.0 0.0 -0.0 0.0 -0.0 9.75418 25.6915 -18.3801 -19.3218 -0.303092 -2.93557 42.0579 -18.6848 5.18345 -10.8498 0.0 0.0 0.0 0.0 0.0 
1025.29890827 573.241 -1694.62530398 -3.02159057725 38.1031534463 8.21457831538 4.40884 0.151628 -2.11627 4.40264 -0.184424 -2.11367 -7.5649 12.6627 5.14525 -7.53132 19.9575 7.78726 -0.0 0.0 -0.0 -1.26022 22.0907 0.789634 -21.0516 -22.9353 68.5523 0.59015 -16.296 0.0844961 -4.89655 -0.198047 0.593567 2.84689 9.21032 22.8026 -0.0 0.0 -0.0 9.61597 -9.93077 -18.1494 -12.312 32.5827 -51.8322 1.66151 39.4534 -0.595817 -63.897 5.771 -5.20588 -7.68553 -22.9557 38.6491 0.0 0.0 0.0 -4.40752 -0.0288949 2.1215 -4.41002 0.106129 2.11904 31.7159 -28.6248 -19.2525 2.46787 -0.109465 -0.362831 -21.4364 26.9605 3.39511 -0.13987 0.0 0.0 -0.0 0.0 -0.0 9.75418 25.6915 -18.3801 -19.3218 -0.303092 -2.93557 42.0579 -18.6848 5.18345 -10.8498 0.0 0.0 0.0 0.0 0.0 
1025.09873429 573.241 -1694.35663839 -3.06180564606 39.051934246 8.27906743216 4.40884 0.151628 -2.11627 4.40264 -0.184424 -2.11367 -7.5649 12.6627 5.14525 -7.53132 19.9575 7.78726 -0.0 0.0 -0.0 -1.26022 22.0907 0.789634 -21.0516 -22.9353 68.5523 0.59015 -16.296 0.0844961 -4.89655 -0.198047 0.593567 2.84689 9.21032 22.8026 -0.0 0.0 -0.0 9.61597 -9.93077 -18.1494 -12.312 32.5827 -51.8322 1.66151 39.4534 -0.595817 -63.897 5.771 -5.20588 -7.68553 -22.9557 38.6491 0.0 0.0 0.0 -4.40752 -0.0288949 2.1215 -4.41002 0.106129 2.11904 31.7159 -28.6248 -19.2525 2.46787 -0.109465 -0.362831 -21.4364 26.9605 3.39511 -0.13987 0.0 0.0 -0.0 0.0 -0.0 9.75418 25.6915 -18.3801 -19.3218 -0.303092 -2.93557 42.0579 -18.6848 5.18345 -10.8498 0.0 0.0 0.0 0.0 0.0 
